<svg width="46" height="45" viewBox="0 0 46 45" fill="none" xmlns="http://www.w3.org/2000/svg">
<path d="M26.75 6.12938C26.75 4.815 25.685 3.75 24.3706 3.75H21.6313C20.315 3.75 19.25 4.815 19.25 6.12938C19.25 7.21313 18.5075 8.14312 17.4969 8.54062C17.3375 8.60437 17.1781 8.67187 17.0225 8.73937C16.0269 9.17062 14.8437 9.03938 14.075 8.2725C13.6288 7.82665 13.0239 7.57619 12.3931 7.57619C11.7624 7.57619 11.1574 7.82665 10.7113 8.2725L8.7725 10.2113C8.32665 10.6574 8.07619 11.2624 8.07619 11.8931C8.07619 12.5239 8.32665 13.1288 8.7725 13.575V13.575C9.54125 14.3437 9.6725 15.525 9.2375 16.5225C9.16915 16.6795 9.10352 16.8376 9.04062 16.9969C8.64312 18.0075 7.71313 18.75 6.62938 18.75C5.315 18.75 4.25 19.815 4.25 21.1294V23.8706C4.25 25.185 5.315 26.25 6.62938 26.25C7.71313 26.25 8.64312 26.9925 9.04062 28.0031C9.10437 28.1625 9.17187 28.3219 9.2375 28.4775C9.67062 29.4731 9.53938 30.6563 8.7725 31.425C8.32665 31.8712 8.07619 32.4761 8.07619 33.1069C8.07619 33.7376 8.32665 34.3426 8.7725 34.7888L10.7113 36.7275C11.1574 37.1734 11.7624 37.4238 12.3931 37.4238C13.0239 37.4238 13.6288 37.1734 14.075 36.7275C14.8437 35.9587 16.025 35.8275 17.0225 36.2606C17.1781 36.33 17.3375 36.3956 17.4969 36.4594C18.5075 36.8569 19.25 37.7869 19.25 38.8706C19.25 40.185 20.315 41.25 21.6294 41.25H24.3706C25.685 41.25 26.75 40.185 26.75 38.8706C26.75 37.7869 27.4925 36.8569 28.5031 36.4575C28.6625 36.3956 28.8219 36.33 28.9775 36.2625C29.9731 35.8275 31.1563 35.9606 31.9231 36.7275C32.1441 36.9485 32.4064 37.1239 32.6952 37.2435C32.9839 37.3632 33.2934 37.4247 33.6059 37.4247C33.9185 37.4247 34.228 37.3632 34.5167 37.2435C34.8054 37.1239 35.0678 36.9485 35.2888 36.7275L37.2275 34.7888C37.6734 34.3426 37.9238 33.7376 37.9238 33.1069C37.9238 32.4761 37.6734 31.8712 37.2275 31.425V31.425C36.4587 30.6563 36.3275 29.475 36.7606 28.4775C36.83 28.3219 36.8956 28.1625 36.9594 28.0031C37.3569 26.9925 38.2869 26.25 39.3706 26.25C40.685 26.25 41.75 25.185 41.75 23.8706V21.1313C41.75 19.8169 40.685 18.7519 39.3706 18.7519C38.2869 18.7519 37.3569 18.0094 36.9575 16.9987C36.8947 16.8395 36.829 16.6813 36.7606 16.5244C36.3294 15.5287 36.4606 14.3456 37.2275 13.5769C37.6734 13.1307 37.9238 12.5258 37.9238 11.895C37.9238 11.2642 37.6734 10.6593 37.2275 10.2131L35.2888 8.27438C34.8426 7.82852 34.2376 7.57807 33.6069 7.57807C32.9761 7.57807 32.3712 7.82852 31.925 8.27438V8.27438C31.1563 9.04313 29.975 9.17438 28.9775 8.74125C28.8205 8.67226 28.6624 8.606 28.5031 8.5425C27.4925 8.14313 26.75 7.21313 26.75 6.13125V6.12938Z" stroke="#007120" stroke-width="2"/>
<path d="M30.5 22.5C30.5 24.4891 29.7098 26.3968 28.3033 27.8033C26.8968 29.2098 24.9891 30 23 30C21.0109 30 19.1032 29.2098 17.6967 27.8033C16.2902 26.3968 15.5 24.4891 15.5 22.5C15.5 20.5109 16.2902 18.6032 17.6967 17.1967C19.1032 15.7902 21.0109 15 23 15C24.9891 15 26.8968 15.7902 28.3033 17.1967C29.7098 18.6032 30.5 20.5109 30.5 22.5V22.5Z" stroke="#007120" stroke-width="2"/>
</svg>
