<svg width="37" height="35" viewBox="0 0 37 35" fill="none" xmlns="http://www.w3.org/2000/svg">
<path d="M35.8969 17.2197L20.4258 1.75664L19.3888 0.719629C19.1526 0.484906 18.833 0.35317 18.5 0.35317C18.1669 0.35317 17.8474 0.484906 17.6111 0.719629L1.103 17.2197C0.860886 17.4609 0.669541 17.7481 0.540257 18.0645C0.410974 18.3808 0.346372 18.7198 0.350264 19.0615C0.366279 20.4709 1.53942 21.596 2.9488 21.596H4.65046V34.6367H32.3495V21.596H34.0872C34.7718 21.596 35.4165 21.3277 35.9009 20.8433C36.1395 20.6055 36.3285 20.3227 36.457 20.0114C36.5856 19.7 36.651 19.3663 36.6497 19.0295C36.6497 18.3488 36.3814 17.7042 35.8969 17.2197ZM20.7422 31.7539H16.2578V23.5859H20.7422V31.7539ZM29.4667 18.7132V31.7539H23.3047V22.625C23.3047 21.7401 22.588 21.0234 21.7031 21.0234H15.2968C14.412 21.0234 13.6953 21.7401 13.6953 22.625V31.7539H7.53327V18.7132H3.68952L18.504 3.91074L19.4289 4.83564L33.3144 18.7132H29.4667Z" fill="#E3CF97"/>
</svg>
