<svg width="45" height="46" viewBox="0 0 45 46" fill="none" xmlns="http://www.w3.org/2000/svg">
<path d="M30.9375 20.1875C28.9608 20.1883 27.0196 20.7138 25.3125 21.7105V13.1562C25.3125 10.5455 24.2754 8.04173 22.4293 6.19567C20.5833 4.34961 18.0795 3.3125 15.4688 3.3125C12.858 3.3125 10.3542 4.34961 8.50819 6.19567C6.66213 8.04173 5.62502 10.5455 5.62502 13.1562V32.8438C5.62097 34.8501 6.23134 36.8097 7.37406 38.4588C8.51678 40.108 10.1371 41.3677 12.017 42.0687C13.897 42.7696 15.9465 42.8781 17.89 42.3796C19.8334 41.8811 21.5777 40.7995 22.8881 39.2802C24.1831 40.6096 25.787 41.5979 27.5567 42.1568C29.3264 42.7158 31.2069 42.8281 33.0306 42.4838C34.8543 42.1394 36.5644 41.349 38.0083 40.1832C39.4523 39.0173 40.5853 37.5122 41.3063 35.8021C42.0273 34.0919 42.3138 32.23 42.1404 30.3822C41.9669 28.5344 41.3389 26.7583 40.3122 25.2122C39.2855 23.6662 37.8922 22.3982 36.2565 21.5215C34.6207 20.6447 32.7934 20.1865 30.9375 20.1875ZM15.4688 6.125C17.3329 6.12723 19.12 6.86874 20.4381 8.18687C21.7563 9.505 22.4978 11.2921 22.5 13.1562V21.5938H8.43752V13.1562C8.43975 11.2921 9.18126 9.505 10.4994 8.18687C11.8175 6.86874 13.6047 6.12723 15.4688 6.125ZM15.4688 39.875C13.6047 39.8728 11.8175 39.1313 10.4994 37.8131C9.18126 36.495 8.43975 34.7079 8.43752 32.8438V24.4062H22.1695C20.7577 26.1553 19.9055 28.2891 19.7239 30.5296C19.5423 32.77 20.0397 35.0132 21.1514 36.9669C20.4996 37.8643 19.6454 38.5954 18.658 39.1007C17.6706 39.606 16.5779 39.8713 15.4688 39.875ZM30.9375 39.875C29.2687 39.875 27.6374 39.3801 26.2499 38.453C24.8624 37.5259 23.7809 36.2081 23.1423 34.6664C22.5037 33.1246 22.3366 31.4281 22.6621 29.7914C22.9877 28.1547 23.7913 26.6513 24.9713 25.4713C26.1513 24.2913 27.6547 23.4877 29.2914 23.1621C30.9282 22.8366 32.6247 23.0037 34.1664 23.6423C35.7082 24.2809 37.0259 25.3623 37.953 26.7499C38.8802 28.1374 39.375 29.7687 39.375 31.4375C39.3724 33.6745 38.4826 35.8191 36.9009 37.4008C35.3191 38.9826 33.1745 39.8724 30.9375 39.875Z" fill="#E3CF97"/>
<path d="M35.1562 30.0312H32.3438V27.2188H29.5312V30.0312H26.7188V32.8438H29.5312V35.6562H32.3438V32.8438H35.1562V30.0312Z" fill="#E3CF97"/>
</svg>
