<svg width="41" height="38" viewBox="0 0 41 38" fill="none" xmlns="http://www.w3.org/2000/svg">
<path d="M14.875 0.5H11.125V4.4375C9.79376 4.71875 8.74376 5.2625 7.97501 5.95625L3.06251 1.04375L0.418762 3.70625L5.95001 9.21875C5.50001 10.6063 5.50001 11.75 5.50001 11.75H1.75001V15.5H5.57501C5.68751 16.6813 5.89376 18.05 6.25001 19.5313L1.15001 21.2188L2.33126 24.7813L7.37501 23.0938C7.82501 24.05 8.31251 25.025 8.91251 25.9625L4.45001 28.9438L6.53126 32.0563L11.2563 28.9063C12.3063 29.9563 13.5438 30.8938 14.9875 31.7L13.1875 35.2813L16.5438 36.9688L18.4188 33.2188L18.1188 33.05C19.9 33.65 21.925 34.0625 24.25 34.1938V38H28V34.1188C29.425 33.95 31.3938 33.575 33.1938 32.7313L36.0438 35.5813L38.6875 32.9188L36.1938 30.4063C36.9063 29.45 37.375 28.25 37.375 26.75C37.375 25.8125 37.2813 25.025 37.15 24.275L40.0938 22.8125L38.4063 19.4375L35.8375 20.7313C34.8063 19.175 33.4563 18.3125 32.2938 17.9L33.5313 14.225L29.9688 13.025L28.5438 17.3C26.05 17.0563 24.5688 16.1 23.6875 15.0688L26.9688 13.4375L25.2813 10.0625L22.375 11.5438C22.245 10.1891 21.7812 8.88774 21.025 7.75625L23.9313 3.40625L20.8188 1.325L18.175 5.3C17.275 4.86875 16.1875 4.53125 14.875 4.3625V0.5ZM26.125 30.5C20.6125 30.5 16.3938 28.9625 13.5813 25.925C8.65001 20.6 9.25001 12.125 9.25001 12.0688V11.8063C9.25001 10.0625 9.98126 8 13 8C17.9313 8 18.5688 10.6813 18.625 11.75C18.625 15.5 21.625 21.125 29.875 21.125C30.4938 21.125 33.625 21.4063 33.625 26.75C33.625 30.2938 26.1813 30.5 26.125 30.5ZM13.9375 11.75C13.1916 11.75 12.4762 12.0463 11.9488 12.5738C11.4213 13.1012 11.125 13.8166 11.125 14.5625C11.125 15.3084 11.4213 16.0238 11.9488 16.5512C12.4762 17.0787 13.1916 17.375 13.9375 17.375C14.6834 17.375 15.3988 17.0787 15.9263 16.5512C16.4537 16.0238 16.75 15.3084 16.75 14.5625C16.75 13.8166 16.4537 13.1012 15.9263 12.5738C15.3988 12.0463 14.6834 11.75 13.9375 11.75ZM18.625 19.25C18.1277 19.25 17.6508 19.4475 17.2992 19.7992C16.9476 20.1508 16.75 20.6277 16.75 21.125C16.75 21.6223 16.9476 22.0992 17.2992 22.4508C17.6508 22.8025 18.1277 23 18.625 23C19.1223 23 19.5992 22.8025 19.9508 22.4508C20.3025 22.0992 20.5 21.6223 20.5 21.125C20.5 20.6277 20.3025 20.1508 19.9508 19.7992C19.5992 19.4475 19.1223 19.25 18.625 19.25ZM27.0625 23C26.3166 23 25.6012 23.2963 25.0738 23.8238C24.5463 24.3512 24.25 25.0666 24.25 25.8125C24.25 26.5584 24.5463 27.2738 25.0738 27.8012C25.6012 28.3287 26.3166 28.625 27.0625 28.625C27.8084 28.625 28.5238 28.3287 29.0513 27.8012C29.5787 27.2738 29.875 26.5584 29.875 25.8125C29.875 25.0666 29.5787 24.3512 29.0513 23.8238C28.5238 23.2963 27.8084 23 27.0625 23Z" fill="#E3CF97"/>
</svg>
