<svg width="45" height="45" viewBox="0 0 45 45" fill="none" xmlns="http://www.w3.org/2000/svg">
<path d="M14.0625 26.7188H16.875V29.5312H14.0625V26.7188Z" fill="#E3CF97"/>
<path d="M21.0938 26.7188H23.9062V29.5312H21.0938V26.7188Z" fill="#E3CF97"/>
<path d="M28.125 26.7188H30.9375V29.5312H28.125V26.7188Z" fill="#E3CF97"/>
<path d="M38.6719 40.7812V7.73438H32.3438V1.40625H12.6562V7.73438H6.32812V40.7812H1.40625V43.5938H43.5938V40.7812H38.6719ZM15.4688 4.21875H29.5312V18.2812H15.4688V4.21875ZM35.8594 40.7812H23.9062V35.1562H21.0938V40.7812H9.14062V10.5469H12.6562V21.0938H32.3438V10.5469H35.8594V40.7812Z" fill="#E3CF97"/>
<path d="M23.9062 7.03125H21.0938V9.84375H18.2812V12.6562H21.0938V15.4688H23.9062V12.6562H26.7188V9.84375H23.9062V7.03125Z" fill="#E3CF97"/>
</svg>
